PathFileType	4	(X/Y/Z)	OpenSim_Sub01_EMGBaseline_Magnet.trc
DataRate	CameraRate	NumFrames	NumMarkers	Units	OrigDataRate	OrigDataStartFrame	OrigNumFrames
100	100	26	8	m	100	6654	7604
Frame#	Time	torso_imu_offset_imu	pelvis_imu_offset_imu	tibia_r_imu_offset_imu	femur_r_imu_offset_imu	tibia_l_imu_offset_imu	femur_l_imu_offset_imu	toes_r_imu_offset_imu	toes_l_imu_offset_imu
				X1	Y1	Z1	X2	Y2	Z2	X3	Y3	Z3	X4	Y4	Z4	X5	Y5	Z5	X6	Y6	Z6	X7	Y7	Z7	X8		Y8	Z8	

6654	66.53000000	-0.92189547	-0.08811609	0.06573206	-0.73614782	0.06899268	-0.56322254	-0.09349892	-0.79237237	-0.03933543	-0.73612748	-0.34446649	0.06928265	-0.60378666	0.47154262	0.21366299	-0.51414375	-0.10866087	0.29749511	-0.60377526	-0.31785567	0.40570756	-0.71904662	-0.08093677	-0.38673592
6655	66.54000000	-0.91816869	-0.08795405	0.06769617	-0.73411475	0.07021855	-0.56497991	-0.08981057	-0.78817175	-0.03857331	-0.74185424	-0.32660548	0.06708187	-0.60152058	0.47464427	0.22211461	-0.51135868	-0.10555410	0.30300800	-0.62273989	-0.31874841	0.37823986	-0.71699127	-0.08276081	-0.38648984
6656	66.55000000	-0.91582078	-0.09077701	0.06910120	-0.73163863	0.07168267	-0.56734748	-0.08918865	-0.78485209	-0.04156645	-0.74877662	-0.31106873	0.06656140	-0.59803220	0.47736136	0.22618432	-0.50772911	-0.10302355	0.30826268	-0.64027162	-0.31637052	0.35442182	-0.71650749	-0.08555443	-0.38536208
6657	66.56000000	-0.91496614	-0.09625558	0.06951896	-0.72954078	0.07325843	-0.56943385	-0.09263050	-0.78315837	-0.04677257	-0.75649171	-0.29776463	0.06771311	-0.59337369	0.47972547	0.22648606	-0.50341994	-0.10101359	0.31288296	-0.65350842	-0.31265922	0.33685760	-0.71692463	-0.08916815	-0.38323523
6658	66.57000000	-0.91448768	-0.10180045	0.06870449	-0.72906467	0.07516270	-0.57061733	-0.10062702	-0.78242000	-0.05078717	-0.76239718	-0.28568242	0.07010664	-0.58896690	0.48279065	0.22609191	-0.49880336	-0.09977125	0.31675699	-0.66495741	-0.31018391	0.31965609	-0.71581455	-0.09288459	-0.38147160
6659	66.58000000	-0.91377274	-0.10545518	0.06679257	-0.73075051	0.07771232	-0.57049642	-0.11331145	-0.78192640	-0.05132085	-0.76519505	-0.27400669	0.07326706	-0.58583298	0.48730854	0.22698717	-0.49440569	-0.09904242	0.32003959	-0.67657540	-0.31013555	0.29837764	-0.71195073	-0.09626715	-0.38100332
6660	66.59000000	-0.91380162	-0.10731673	0.06503251	-0.73301643	0.08149490	-0.56930325	-0.12979307	-0.78095639	-0.04954001	-0.76763124	-0.26257279	0.07661933	-0.58369763	0.49305399	0.22774000	-0.49119540	-0.09706075	0.32365796	-0.68827374	-0.30956063	0.27354481	-0.70781135	-0.09975692	-0.38137120
6661	66.60000000	-0.91572177	-0.10790155	0.06477826	-0.73398916	0.08704884	-0.56740714	-0.14903065	-0.77877370	-0.04717081	-0.77291935	-0.25132081	0.07962512	-0.58202293	0.49956428	0.22648795	-0.49009433	-0.09192679	0.32858102	-0.69961485	-0.30495472	0.24655498	-0.70638642	-0.10387502	-0.38181247
6662	66.61000000	-0.91877507	-0.10832318	0.06586668	-0.73330557	0.09342702	-0.56547674	-0.17056379	-0.77444604	-0.04475505	-0.78008409	-0.23995830	0.08257236	-0.57990969	0.50552429	0.22437859	-0.49010343	-0.08393288	0.33426568	-0.71059922	-0.29603497	0.21816850	-0.70807461	-0.10791192	-0.38087096
6663	66.62000000	-0.92073721	-0.11015404	0.06696710	-0.73176490	0.09853950	-0.56441092	-0.19437900	-0.76689078	-0.04192334	-0.78492694	-0.22801430	0.08638448	-0.57618124	0.50896359	0.22487545	-0.48874565	-0.07505808	0.33900529	-0.72156431	-0.28499817	0.18865527	-0.71127984	-0.11021149	-0.37655803
6664	66.63000000	-0.92026030	-0.11399116	0.06719690	-0.73004763	0.10124688	-0.56480373	-0.22021738	-0.75584442	-0.03896135	-0.78503569	-0.21569475	0.09130003	-0.57047598	0.50906343	0.23000992	-0.48450063	-0.06661833	0.34162771	-0.73253502	-0.27360918	0.15820864	-0.71435710	-0.11007254	-0.36864434
6665	66.64000000	-0.91871277	-0.11749832	0.06709399	-0.72839248	0.10332162	-0.56632591	-0.24705665	-0.74348882	-0.03817098	-0.78355232	-0.20523057	0.09547380	-0.56487544	0.50847733	0.23738085	-0.47880354	-0.05783022	0.34263784	-0.74258177	-0.26216006	0.12683209	-0.71566848	-0.10970368	-0.36216871
6666	66.65000000	-0.91786858	-0.11803192	0.06741786	-0.72693554	0.10690706	-0.56847410	-0.27381127	-0.73227944	-0.04198909	-0.78441399	-0.19901492	0.09686074	-0.56175604	0.51031325	0.24386266	-0.47355214	-0.04766699	0.34286100	-0.75069736	-0.25064301	0.09446337	-0.71373896	-0.11166064	-0.36266707
6667	66.66000000	-0.91805553	-0.11646386	0.06831309	-0.72549899	0.11164066	-0.57069478	-0.30056118	-0.72200084	-0.04929484	-0.78809093	-0.19626608	0.09618948	-0.56114740	0.51487388	0.24775269	-0.46938975	-0.03726872	0.34327765	-0.75735393	-0.23863797	0.06058247	-0.70951068	-0.11564325	-0.36853900
6668	66.67000000	-0.91848827	-0.11637099	0.06945104	-0.72366363	0.11523161	-0.57239605	-0.32828332	-0.71038194	-0.05622953	-0.79238480	-0.19375928	0.09632293	-0.56127279	0.52030275	0.24844412	-0.46599410	-0.02944243	0.34498717	-0.76416166	-0.22540792	0.02431750	-0.70578588	-0.11915354	-0.37269253
6669	66.68000000	-0.91856995	-0.11974436	0.07054560	-0.72137771	0.11635994	-0.57329535	-0.35775100	-0.69569756	-0.06004731	-0.79545274	-0.18944252	0.09891683	-0.56060402	0.52514080	0.24600603	-0.46310861	-0.02559583	0.34847984	-0.77172990	-0.21067505	-0.01458306	-0.70457312	-0.12054898	-0.37054292
6670	66.69000000	-0.91834876	-0.12365611	0.07147344	-0.71969981	0.11673785	-0.57403225	-0.38906382	-0.67800174	-0.06151845	-0.79671203	-0.18493535	0.10187689	-0.55848938	0.52927499	0.24243222	-0.46074581	-0.02285130	0.35242691	-0.77760732	-0.19555028	-0.05450042	-0.70538032	-0.12089686	-0.36537530
6671	66.70000000	-0.91800147	-0.12451444	0.07216361	-0.71978289	0.11848541	-0.57537001	-0.42207754	-0.65771584	-0.06203684	-0.79589004	-0.18241970	0.10260289	-0.55452888	0.53285512	0.23998070	-0.45891867	-0.01776948	0.35525796	-0.77897047	-0.18135073	-0.09361978	-0.70722436	-0.12166629	-0.36171170
6672	66.71000000	-0.91784373	-0.12240109	0.07287926	-0.72112060	0.12143746	-0.57737123	-0.45486283	-0.63583528	-0.06260080	-0.79386706	-0.18233530	0.10129915	-0.54966395	0.53624050	0.23953920	-0.45690215	-0.01036103	0.35681872	-0.77589560	-0.16863690	-0.13236780	-0.70869256	-0.12284193	-0.36081080
6673	66.72000000	-0.91829785	-0.12022488	0.07414060	-0.72192972	0.12367029	-0.57955931	-0.48411752	-0.61379682	-0.06390376	-0.79241043	-0.18378096	0.10032821	-0.54586790	0.53995156	0.24094028	-0.45340375	-0.00329163	0.35804486	-0.77069059	-0.15738675	-0.17289577	-0.70804238	-0.12326629	-0.36141935
6674	66.73000000	-0.91944736	-0.11992812	0.07630610	-0.72096210	0.12399885	-0.58155815	-0.50819074	-0.59225332	-0.06609771	-0.79265168	-0.18616108	0.10116951	-0.54419765	0.54427580	0.24366380	-0.44796828	0.00167309	0.35963794	-0.76497454	-0.14748823	-0.21627566	-0.70453071	-0.12253227	-0.36242114
6675	66.74000000	-0.92036112	-0.12036520	0.07923392	-0.71865713	0.12356751	-0.58333168	-0.53044334	-0.56949465	-0.06774912	-0.79376527	-0.18989058	0.10251350	-0.54290813	0.54879636	0.24622218	-0.44267180	0.00564500	0.36152052	-0.75814939	-0.13860636	-0.26024043	-0.70040959	-0.12254979	-0.36329931
6676	66.75000000	-0.92001867	-0.11993343	0.08262183	-0.71576388	0.12382642	-0.58489253	-0.55486896	-0.54353938	-0.06730268	-0.79457474	-0.19549658	0.10262457	-0.53988263	0.55298498	0.24707031	-0.43985677	0.01014814	0.36350326	-0.74922579	-0.13037660	-0.30202855	-0.69834659	-0.12549160	-0.36367720
6677	66.76000000	-0.91887082	-0.11873378	0.08515201	-0.71299661	0.12435750	-0.58604195	-0.58106479	-0.51488374	-0.06576722	-0.79406643	-0.20238943	0.10110787	-0.53519440	0.55659537	0.24647894	-0.43884891	0.01491389	0.36587764	-0.73749291	-0.12260893	-0.34071673	-0.69894084	-0.13105388	-0.36361852
6678	66.77000000	-0.91850034	-0.11817822	0.08472588	-0.71104262	0.12330523	-0.58641871	-0.60524482	-0.48593078	-0.06612436	-0.79135272	-0.20912038	0.09860048	-0.53060199	0.55959853	0.24611611	-0.43665264	0.01829423	0.36930492	-0.72245483	-0.11524739	-0.37679645	-0.70119926	-0.13702668	-0.36352595
6679	66.78000000	-0.91966753	-0.11905258	0.08068753	-0.71034695	0.11981745	-0.58601426	-0.62500598	-0.45845012	-0.06988511	-0.78641727	-0.21500787	0.09558073	-0.52720242	0.56230479	0.24695723	-0.43153682	0.01944101	0.37397027	-0.70417960	-0.10786203	-0.41049716	-0.70409235	-0.14163936	-0.36381901
